<?xml version="1.0" standalone="no"?>
<!DOCTYPE svg PUBLIC "-//W3C//DTD SVG 20010904//EN"
 "http://www.w3.org/TR/2001/REC-SVG-20010904/DTD/svg10.dtd">
<svg version="1.0" xmlns="http://www.w3.org/2000/svg"
 width="128.000000pt" height="128.000000pt" viewBox="0 0 128.000000 128.000000"
 preserveAspectRatio="xMidYMid meet">
<metadata>
Created by potrace 1.16, written by Peter Selinger 2001-2019
</metadata>
<g transform="translate(0.000000,128.000000) scale(0.100000,-0.100000)"
fill="#000000" stroke="none">
<path d="M685 998 c4 -13 28 -44 53 -69 46 -45 49 -47 122 -53 49 -4 70 -3 60
4 -12 7 -12 12 -2 22 10 10 4 21 -30 55 -41 41 -41 43 -18 44 33 2 -83 17
-143 18 -46 1 -48 0 -42 -21z"/>
<path d="M368 683 c-1 -88 -1 -88 -7 -24 l-6 64 -14 -47 c-11 -40 -20 -51 -49
-63 -19 -8 -45 -12 -58 -9 -13 4 -25 6 -26 5 -2 -1 -23 8 -47 20 -54 28 -63
21 -69 -56 -3 -34 -10 -61 -18 -66 -22 -13 -16 -27 16 -38 37 -13 39 -33 5
-35 -51 -3 -106 -61 -92 -98 3 -8 16 -22 29 -30 27 -18 29 -18 303 -71 105
-21 336 -26 615 -15 151 6 193 11 231 28 44 19 99 72 99 95 -1 36 -43 57 -122
59 l-63 1 55 7 c30 3 -85 4 -256 1 l-311 -4 -22 49 c-50 112 -55 119 -84 122
-15 2 -25 7 -22 12 3 5 2 41 -1 80 -7 70 -8 73 -40 86 -18 8 -36 14 -39 14 -3
0 -6 -39 -7 -87z"/>
</g>
</svg>
